HIERARCHY
ROOT Hips
{
	OFFSET 0.000000 97.167313 0.000000
	CHANNELS 6 Xposition Yposition Zposition Xrotation Yrotation Zrotation
	JOINT Spine
	{
		OFFSET 0.000000 13.784798 0.064400
		CHANNELS 3 Xrotation Yrotation Zrotation
		JOINT Spine1
		{
			OFFSET 0.000000 12.037903 0.404700
			CHANNELS 3 Xrotation Yrotation Zrotation
			JOINT Spine2
			{
				OFFSET 0.000000 17.795601 0.420200
				CHANNELS 3 Xrotation Yrotation Zrotation
				JOINT Neck
				{
					OFFSET 0.000000 39.131302 11.954600
					CHANNELS 3 Xrotation Yrotation Zrotation
					JOINT Head
					{
						OFFSET 0.000000 14.456192 15.627699
						CHANNELS 3 Xrotation Yrotation Zrotation
						JOINT HeadTop_End
						{
							OFFSET 0.000000 15.703506 7.603401
							CHANNELS 3 Xrotation Yrotation Zrotation
							End Site
							{
								OFFSET 0.000000 17.447403 0.000000
							}
						}
					}
				}
				JOINT LeftShoulder
				{
					OFFSET 17.399500 24.608795 1.168800
					CHANNELS 3 Xrotation Yrotation Zrotation
					JOINT LeftArm
					{
						OFFSET 18.980635 5.765305 1.818600
						CHANNELS 3 Xrotation Yrotation Zrotation
						JOINT LeftForeArm
						{
							OFFSET 49.290169 0.000000 0.000000
							CHANNELS 3 Xrotation Yrotation Zrotation
							JOINT LeftHand
							{
								OFFSET 31.562012 0.000000 0.000000
								CHANNELS 3 Xrotation Yrotation Zrotation
								JOINT LeftHandThumb1
								{
									OFFSET 6.133995 -4.388519 7.076070
									CHANNELS 3 Xrotation Yrotation Zrotation
									JOINT LeftHandThumb2
									{
										OFFSET 6.037666 -3.485840 3.485847
										CHANNELS 3 Xrotation Yrotation Zrotation
										JOINT LeftHandThumb3
										{
											OFFSET 6.496506 -3.750763 3.750761
											CHANNELS 3 Xrotation Yrotation Zrotation
											JOINT LeftHandThumb4
											{
												OFFSET 5.616882 -3.242905 3.242910
												CHANNELS 3 Xrotation Yrotation Zrotation
												End Site
												{
													OFFSET -1.254608 7.132141 0.375429
												}
											}
										}
									}
								}
								JOINT LeftHandPinky1
								{
									OFFSET 18.920792 -0.453171 -11.426712
									CHANNELS 3 Xrotation Yrotation Zrotation
									JOINT LeftHandPinky2
									{
										OFFSET 4.919586 0.000000 0.000000
										CHANNELS 3 Xrotation Yrotation Zrotation
										JOINT LeftHandPinky3
										{
											OFFSET 5.233047 0.000000 0.000000
											CHANNELS 3 Xrotation Yrotation Zrotation
											JOINT LeftHandPinky4
											{
												OFFSET 5.571716 0.000000 0.000000
												CHANNELS 3 Xrotation Yrotation Zrotation
												End Site
												{
													OFFSET -3.459808 4.342407 -0.466164
												}
											}
										}
									}
								}
								JOINT LeftHandRing1
								{
									OFFSET 22.726120 -0.094986 -6.500475
									CHANNELS 3 Xrotation Yrotation Zrotation
									JOINT LeftHandRing2
									{
										OFFSET 6.408615 0.000000 0.000000
										CHANNELS 3 Xrotation Yrotation Zrotation
										JOINT LeftHandRing3
										{
											OFFSET 6.150223 0.000000 0.000000
											CHANNELS 3 Xrotation Yrotation Zrotation
											JOINT LeftHandRing4
											{
												OFFSET 6.145386 0.000000 0.000000
												CHANNELS 3 Xrotation Yrotation Zrotation
												End Site
												{
													OFFSET -3.671402 4.923981 -0.202372
												}
											}
										}
									}
								}
								JOINT LeftHandMiddle1
								{
									OFFSET 23.373947 0.000000 0.000001
									CHANNELS 3 Xrotation Yrotation Zrotation
									JOINT LeftHandMiddle2
									{
										OFFSET 6.996567 0.000000 0.000000
										CHANNELS 3 Xrotation Yrotation Zrotation
										JOINT LeftHandMiddle3
										{
											OFFSET 7.015945 0.000000 0.000000
											CHANNELS 3 Xrotation Yrotation Zrotation
											JOINT LeftHandMiddle4
											{
												OFFSET 7.721573 0.000000 0.000000
												CHANNELS 3 Xrotation Yrotation Zrotation
												End Site
												{
													OFFSET -4.651108 6.158463 0.251582
												}
											}
										}
									}
								}
								JOINT LeftHandIndex1
								{
									OFFSET 21.310577 -0.490082 6.209344
									CHANNELS 3 Xrotation Yrotation Zrotation
									JOINT LeftHandIndex2
									{
										OFFSET 7.536453 0.000000 0.000000
										CHANNELS 3 Xrotation Yrotation Zrotation
										JOINT LeftHandIndex3
										{
											OFFSET 7.512344 0.000000 0.000000
											CHANNELS 3 Xrotation Yrotation Zrotation
											JOINT LeftHandIndex4
											{
												OFFSET 10.212402 0.000000 0.000001
												CHANNELS 3 Xrotation Yrotation Zrotation
												End Site
												{
													OFFSET -5.180801 8.690506 1.388433
												}
											}
										}
									}
								}
							}
						}
					}
				}
				JOINT RightShoulder
				{
					OFFSET -17.399500 24.608795 1.168800
					CHANNELS 3 Xrotation Yrotation Zrotation
					JOINT RightArm
					{
						OFFSET -18.980635 5.765305 1.818600
						CHANNELS 3 Xrotation Yrotation Zrotation
						JOINT RightForeArm
						{
							OFFSET -49.290169 0.000000 0.000000
							CHANNELS 3 Xrotation Yrotation Zrotation
							JOINT RightHand
							{
								OFFSET -31.562012 0.000000 0.000000
								CHANNELS 3 Xrotation Yrotation Zrotation
								JOINT RightHandThumb1
								{
									OFFSET -6.133995 -4.388519 7.076070
									CHANNELS 3 Xrotation Yrotation Zrotation
									JOINT RightHandThumb2
									{
										OFFSET -6.037666 -3.485840 3.485847
										CHANNELS 3 Xrotation Yrotation Zrotation
										JOINT RightHandThumb3
										{
											OFFSET -6.496506 -3.750763 3.750761
											CHANNELS 3 Xrotation Yrotation Zrotation
											JOINT RightHandThumb4
											{
												OFFSET -5.616882 -3.242905 3.242910
												CHANNELS 3 Xrotation Yrotation Zrotation
												End Site
												{
													OFFSET 1.254608 7.132141 0.375429
												}
											}
										}
									}
								}
								JOINT RightHandIndex1
								{
									OFFSET -21.310577 -0.490082 6.209344
									CHANNELS 3 Xrotation Yrotation Zrotation
									JOINT RightHandIndex2
									{
										OFFSET -7.536453 0.000000 0.000000
										CHANNELS 3 Xrotation Yrotation Zrotation
										JOINT RightHandIndex3
										{
											OFFSET -7.512344 0.000000 0.000000
											CHANNELS 3 Xrotation Yrotation Zrotation
											JOINT RightHandIndex4
											{
												OFFSET -10.212402 0.000000 0.000001
												CHANNELS 3 Xrotation Yrotation Zrotation
												End Site
												{
													OFFSET 5.180801 8.690506 1.388433
												}
											}
										}
									}
								}
								JOINT RightHandMiddle1
								{
									OFFSET -23.373947 0.000000 0.000001
									CHANNELS 3 Xrotation Yrotation Zrotation
									JOINT RightHandMiddle2
									{
										OFFSET -6.996567 0.000000 0.000000
										CHANNELS 3 Xrotation Yrotation Zrotation
										JOINT RightHandMiddle3
										{
											OFFSET -7.015945 0.000000 0.000000
											CHANNELS 3 Xrotation Yrotation Zrotation
											JOINT RightHandMiddle4
											{
												OFFSET -7.721573 0.000000 0.000000
												CHANNELS 3 Xrotation Yrotation Zrotation
												End Site
												{
													OFFSET 4.651108 6.158463 0.251582
												}
											}
										}
									}
								}
								JOINT RightHandRing1
								{
									OFFSET -22.726120 -0.094986 -6.500475
									CHANNELS 3 Xrotation Yrotation Zrotation
									JOINT RightHandRing2
									{
										OFFSET -6.408615 0.000000 0.000000
										CHANNELS 3 Xrotation Yrotation Zrotation
										JOINT RightHandRing3
										{
											OFFSET -6.150223 0.000000 0.000000
											CHANNELS 3 Xrotation Yrotation Zrotation
											JOINT RightHandRing4
											{
												OFFSET -6.145386 0.000000 0.000000
												CHANNELS 3 Xrotation Yrotation Zrotation
												End Site
												{
													OFFSET 3.671402 4.923981 -0.202372
												}
											}
										}
									}
								}
								JOINT RightHandPinky1
								{
									OFFSET -18.920792 -0.453171 -11.426712
									CHANNELS 3 Xrotation Yrotation Zrotation
									JOINT RightHandPinky2
									{
										OFFSET -4.919586 0.000000 0.000000
										CHANNELS 3 Xrotation Yrotation Zrotation
										JOINT RightHandPinky3
										{
											OFFSET -5.233047 0.000000 0.000000
											CHANNELS 3 Xrotation Yrotation Zrotation
											JOINT RightHandPinky4
											{
												OFFSET -5.571716 0.000000 0.000000
												CHANNELS 3 Xrotation Yrotation Zrotation
												End Site
												{
													OFFSET 3.459808 4.342407 -0.466164
												}
											}
										}
									}
								}
							}
						}
					}
				}
			}
		}
	}
	JOINT LeftUpLeg
	{
		OFFSET 19.899099 -7.885101 -3.429500
		CHANNELS 3 Xrotation Yrotation Zrotation
		JOINT LeftLeg
		{
			OFFSET 1.745560 -36.997807 10.304700
			CHANNELS 3 Xrotation Yrotation Zrotation
			JOINT LeftFoot
			{
				OFFSET -1.745558 -29.803308 -13.615400
				CHANNELS 3 Xrotation Yrotation Zrotation
				JOINT LeftToeBase
				{
					OFFSET 1.181900 -18.539904 15.226099
					CHANNELS 3 Xrotation Yrotation Zrotation
					JOINT LeftToe_End
					{
						OFFSET -0.863701 1.402801 16.534700
						CHANNELS 3 Xrotation Yrotation Zrotation
						End Site
						{
							OFFSET 0.000000 16.616566 0.000000
						}
					}
				}
			}
		}
	}
	JOINT RightUpLeg
	{
		OFFSET -19.899099 -7.885101 -3.429500
		CHANNELS 3 Xrotation Yrotation Zrotation
		JOINT RightLeg
		{
			OFFSET -1.745560 -36.997807 10.304700
			CHANNELS 3 Xrotation Yrotation Zrotation
			JOINT RightFoot
			{
				OFFSET 1.745558 -29.803308 -13.615400
				CHANNELS 3 Xrotation Yrotation Zrotation
				JOINT RightToeBase
				{
					OFFSET -1.181900 -18.539904 15.226099
					CHANNELS 3 Xrotation Yrotation Zrotation
					JOINT RightToe_End
					{
						OFFSET 0.863701 1.402801 16.534700
						CHANNELS 3 Xrotation Yrotation Zrotation
						End Site
						{
							OFFSET 0.000000 16.616566 0.000000
						}
					}
				}
			}
		}
	}
}
MOTION
Frames: 4
Frame Time: 0.033333
-5.409206 71.123352 6.412466 19.452956 -44.050888 6.393449 0.792266 6.816723 -0.449832 -1.588678 4.492989 -2.192223 -1.597447 -0.195619 1.993554 12.118091 6.829920 -4.433337 -0.737342 20.027395 8.229671 0.000001 -0.000000 -0.000000 3.544245 4.756010 -11.623021 -54.038838 -33.116425 -50.381535 0.000333 -81.882350 0.000355 -58.768396 25.992599 38.870330 -14.557467 10.837977 12.229973 0.749552 -4.257853 13.305512 -10.783674 -23.179389 -4.132396 0.000002 0.000001 -0.000001 -8.298308 -6.522674 -38.520156 2.848772 5.024376 -59.084415 0.876774 3.084714 -31.727506 -0.000000 -0.000001 0.000001 -6.054131 -0.166585 -49.857584 3.046266 5.137025 -61.313952 0.351723 2.001102 -19.935130 -0.000000 -0.000001 0.000003 -2.430841 1.729213 -41.460911 2.952361 5.084716 -60.259931 1.321758 3.707974 -39.227836 0.000001 -0.000001 0.000004 -0.809542 2.578156 -31.496430 3.095903 5.163782 -61.866972 0.503778 2.378641 -23.913129 -0.000000 -0.000000 -0.000001 -14.733702 2.115974 -4.463084 72.337536 138.834045 -52.653505 0.000010 29.080678 -0.000000 -49.752467 -7.371290 -31.498759 8.377131 -4.904136 11.021994 21.620228 -18.183886 -18.379209 -0.702956 -49.821200 -32.535183 -0.000000 -0.000001 0.000002 0.558923 -4.406579 25.436656 1.653047 -3.560346 49.799090 1.737704 -3.630059 51.149221 -0.000003 -0.000003 -0.000001 10.969808 -12.875578 52.800822 6.387590 -4.324417 111.833665 0.247375 -1.499117 18.739128 -0.000001 0.000000 -0.000008 3.705080 -7.151329 57.622447 5.328206 -4.608680 98.293430 1.627350 -3.538511 49.384013 0.000000 0.000001 -0.000003 0.474823 -5.172983 58.987686 3.194327 -4.421925 71.674154 1.771402 -3.656898 51.679557 -0.000001 0.000000 0.000001 -78.603914 -13.910257 17.051765 45.823435 -9.869510 3.589635 26.576217 -1.448028 -16.291528 -0.833988 0.030309 -2.080422 -0.000001 0.000001 0.000000 -21.867505 -7.561105 -20.588955 51.456029 0.736810 8.603001 -29.232820 -27.097655 21.912080 -1.117558 -0.000008 -0.000004 -0.000000 -0.000000 -0.000000 
-5.592454 72.879601 -0.161501 21.586249 -44.384683 7.619820 1.134043 6.953489 0.305632 -1.310870 4.621461 -2.233293 -1.314412 -0.079139 1.955558 11.539368 6.719173 -4.205102 -1.771498 19.427322 8.399852 -0.000001 -0.000000 -0.000001 3.451681 4.257296 -11.406560 -55.761552 -33.679335 -50.844864 0.000100 -80.674185 0.000079 -57.419310 24.773800 37.437978 -14.557459 10.837974 12.229969 0.749551 -4.257849 13.305517 -10.783674 -23.179388 -4.132398 0.000003 0.000001 -0.000001 -8.298306 -6.522676 -38.520150 2.848774 5.024375 -59.084415 0.876777 3.084719 -31.727503 0.000001 0.000001 -0.000004 -6.054130 -0.166586 -49.857577 3.046267 5.137024 -61.313952 0.351725 2.001103 -19.935131 -0.000001 -0.000001 0.000005 -2.430840 1.729214 -41.460911 2.952363 5.084715 -60.259931 1.321758 3.707973 -39.227836 0.000001 0.000001 0.000002 -0.809540 2.578152 -31.496427 3.095904 5.163782 -61.866972 0.503778 2.378639 -23.913129 -0.000000 0.000002 -0.000003 -14.702146 2.142273 -4.298176 72.738653 139.648982 -53.738996 0.000020 28.981971 -0.000016 -47.783433 -6.248430 -31.304167 8.377129 -4.904135 11.021995 21.620230 -18.183891 -18.379211 -0.702954 -49.821203 -32.535183 0.000000 -0.000001 -0.000000 0.558922 -4.406582 25.436656 1.653053 -3.560348 49.799094 1.737704 -3.630058 51.149221 -0.000001 -0.000003 0.000003 10.969806 -12.875580 52.800825 6.387589 -4.324419 111.833665 0.247372 -1.499115 18.739123 -0.000004 0.000002 -0.000002 3.705079 -7.151330 57.622447 5.328206 -4.608680 98.293437 1.627350 -3.538511 49.384009 -0.000000 -0.000000 -0.000003 0.474826 -5.172984 58.987686 3.194328 -4.421928 71.674161 1.771405 -3.656900 51.679561 0.000001 -0.000001 0.000000 -80.012709 -7.037796 12.594016 57.977139 -10.044147 0.757210 15.775604 -1.951737 -18.802744 -4.777950 -0.677940 8.056990 0.000001 0.000000 0.000000 -28.614143 -7.750727 -16.228311 53.470587 -1.510335 10.699187 -28.837800 -24.765159 15.321188 -4.032526 -0.000019 -0.000001 -0.000000 0.000000 -0.000000 
-6.064991 74.328659 -7.096035 25.227242 -46.786424 9.741946 0.968220 8.491570 1.049243 -1.320867 5.331378 -2.300517 -1.329638 0.607869 1.876771 11.123526 6.435090 -4.023542 -2.350633 18.589410 8.709351 -0.000001 0.000000 0.000001 3.596422 4.391553 -11.859930 -57.750902 -35.526198 -51.867579 0.000124 -78.626897 0.000128 -56.281244 23.486032 35.784898 -14.557461 10.837979 12.229970 0.749555 -4.257851 13.305512 -10.783672 -23.179389 -4.132396 0.000000 0.000001 -0.000002 -8.298307 -6.522673 -38.520156 2.848776 5.024380 -59.084415 0.876777 3.084717 -31.727506 -0.000001 0.000002 0.000001 -6.054127 -0.166585 -49.857584 3.046267 5.137022 -61.313946 0.351723 2.001102 -19.935128 0.000001 -0.000001 -0.000000 -2.430841 1.729213 -41.460911 2.952361 5.084718 -60.259931 1.321757 3.707972 -39.227839 -0.000000 0.000000 0.000007 -0.809541 2.578159 -31.496430 3.095902 5.163786 -61.866966 0.503777 2.378642 -23.913127 -0.000000 0.000001 0.000002 -14.638248 2.328203 -4.086763 73.784847 139.877520 -55.250964 0.000002 29.445519 0.000010 -46.271741 -5.529245 -31.487927 8.377130 -4.904136 11.021993 21.620230 -18.183890 -18.379213 -0.702949 -49.821203 -32.535183 -0.000001 0.000000 0.000002 0.558922 -4.406584 25.436647 1.653049 -3.560344 49.799094 1.737699 -3.630055 51.149221 -0.000001 -0.000002 0.000001 10.969806 -12.875579 52.800822 6.387586 -4.324415 111.833665 0.247371 -1.499118 18.739128 -0.000001 0.000000 -0.000006 3.705081 -7.151329 57.622440 5.328205 -4.608679 98.293430 1.627350 -3.538510 49.384009 0.000001 0.000001 -0.000001 0.474827 -5.172990 58.987686 3.194328 -4.421924 71.674161 1.771403 -3.656900 51.679561 -0.000002 0.000001 0.000004 -78.302443 -0.905958 9.271169 62.989186 -7.975811 -0.714985 12.569408 -9.925257 -20.565285 -9.715586 -2.608366 14.882731 0.000000 0.000002 -0.000000 -35.498580 -9.626539 -13.057324 53.795933 -3.747320 12.767091 -26.687919 -16.638093 12.766136 -6.473995 0.000006 -0.000002 -0.000000 0.000000 0.000000 
-6.633585 74.713898 -14.787388 29.277736 -49.853339 12.518662 0.721334 10.132808 1.214570 -1.412602 6.214302 -2.374920 -1.420884 1.466130 1.785863 10.672300 6.126695 -3.745101 -2.899211 17.818772 9.146389 0.000000 0.000000 0.000001 3.755954 4.786404 -12.306304 -59.645242 -36.720709 -52.832008 -0.000088 -77.533507 -0.000042 -55.727783 23.332775 35.012414 -14.557461 10.837975 12.229975 0.749552 -4.257853 13.305513 -10.783673 -23.179393 -4.132400 -0.000000 0.000001 -0.000001 -8.298303 -6.522674 -38.520156 2.848774 5.024378 -59.084422 0.876775 3.084718 -31.727503 -0.000000 0.000000 -0.000002 -6.054129 -0.166585 -49.857584 3.046265 5.137025 -61.313952 0.351723 2.001105 -19.935133 -0.000000 0.000000 0.000003 -2.430840 1.729212 -41.460918 2.952362 5.084718 -60.259931 1.321757 3.707972 -39.227839 0.000001 0.000000 0.000001 -0.809541 2.578158 -31.496427 3.095903 5.163782 -61.866966 0.503779 2.378641 -23.913131 -0.000003 0.000001 0.000002 -14.573085 2.615665 -3.942827 74.369115 140.156561 -56.387480 0.000035 30.127500 -0.000016 -45.489442 -5.634184 -31.749448 8.377128 -4.904134 11.021992 21.620230 -18.183893 -18.379209 -0.702951 -49.821206 -32.535189 -0.000002 0.000003 0.000002 0.558922 -4.406581 25.436651 1.653048 -3.560346 49.799090 1.737700 -3.630054 51.149224 -0.000001 -0.000003 -0.000002 10.969805 -12.875579 52.800822 6.387590 -4.324419 111.833658 0.247374 -1.499118 18.739123 -0.000000 0.000001 -0.000008 3.705080 -7.151328 57.622440 5.328204 -4.608680 98.293430 1.627352 -3.538511 49.384006 -0.000001 0.000001 -0.000005 0.474827 -5.172985 58.987686 3.194326 -4.421927 71.674161 1.771405 -3.656897 51.679564 -0.000001 -0.000000 -0.000001 -76.466795 2.040787 5.042516 65.538616 -6.219465 -0.630461 10.834061 -15.636936 -15.389943 -12.327430 -2.069204 13.140601 0.000000 0.000000 0.000000 -40.966061 -12.362629 -11.637375 55.556417 -6.047378 11.597785 -23.975050 -6.935585 19.902572 -9.317385 0.000007 0.000001 -0.000001 0.000000 0.000000 
